<svg width="19" height="20" viewBox="0 0 19 20" fill="none" xmlns="http://www.w3.org/2000/svg">
<path d="M12.6666 8.33366H14.2499M12.6666 11.667H14.2499M4.88449 12.5004C5.04768 12.0121 5.35086 11.5891 5.75217 11.2899C6.15348 10.9907 6.63313 10.83 7.1249 10.83C7.61668 10.83 8.09633 10.9907 8.49764 11.2899C8.89895 11.5891 9.20213 12.0121 9.36532 12.5004M8.70825 9.16699C8.70825 10.0875 7.99937 10.8337 7.12492 10.8337C6.25047 10.8337 5.54159 10.0875 5.54159 9.16699C5.54159 8.24652 6.25047 7.50033 7.12492 7.50033C7.99937 7.50033 8.70825 8.24652 8.70825 9.16699ZM3.16659 4.16699H15.8333C16.7077 4.16699 17.4166 4.91318 17.4166 5.83366V14.167C17.4166 15.0875 16.7077 15.8337 15.8333 15.8337H3.16659C2.29213 15.8337 1.58325 15.0875 1.58325 14.167V5.83366C1.58325 4.91318 2.29213 4.16699 3.16659 4.16699Z" stroke="#737373" stroke-width="1.5" stroke-linecap="round" stroke-linejoin="round"/>
</svg>
