<svg width="25" height="25" viewBox="0 0 25 25" fill="none" xmlns="http://www.w3.org/2000/svg">
<g clip-path="url(#clip0_688_4923)">
<path d="M16.4848 21.6363V19.5757C16.4848 18.4827 16.0506 17.4344 15.2777 16.6615C14.5048 15.8887 13.4566 15.4545 12.3636 15.4545H6.18176C5.08875 15.4545 4.0405 15.8887 3.26762 16.6615C2.49474 17.4344 2.06055 18.4827 2.06055 19.5757V21.6363M17.5151 8.24234L22.6666 13.3939M22.6666 8.24234L17.5151 13.3939M13.3939 7.21203C13.3939 9.48811 11.5488 11.3332 9.27267 11.3332C6.99659 11.3332 5.15146 9.48811 5.15146 7.21203C5.15146 4.93595 6.99659 3.09082 9.27267 3.09082C11.5488 3.09082 13.3939 4.93595 13.3939 7.21203Z" stroke="#163572" stroke-width="3" stroke-linecap="round" stroke-linejoin="round"/>
</g>
<defs>
<clipPath id="clip0_688_4923">
<rect width="24.7273" height="24.7273" fill="white"/>
</clipPath>
</defs>
</svg>
