<svg width="16" height="17" viewBox="0 0 16 17" fill="none" xmlns="http://www.w3.org/2000/svg">
<path d="M7 8.33333C7 8.70152 7.29848 9 7.66667 9C8.03486 9 8.33333 8.70152 8.33333 8.33333C8.33333 7.96514 8.03486 7.66667 7.66667 7.66667C7.29848 7.66667 7 7.96514 7 8.33333Z" stroke="#737373" stroke-width="1.5" stroke-linecap="round" stroke-linejoin="round"/>
<path d="M7 13C7 13.3682 7.29848 13.6667 7.66667 13.6667C8.03486 13.6667 8.33333 13.3682 8.33333 13C8.33333 12.6318 8.03486 12.3333 7.66667 12.3333C7.29848 12.3333 7 12.6318 7 13Z" stroke="#737373" stroke-width="1.5" stroke-linecap="round" stroke-linejoin="round"/>
<path d="M7 3.66667C7 4.03486 7.29848 4.33333 7.66667 4.33333C8.03486 4.33333 8.33333 4.03486 8.33333 3.66667C8.33333 3.29848 8.03486 3 7.66667 3C7.29848 3 7 3.29848 7 3.66667Z" stroke="#737373" stroke-width="1.5" stroke-linecap="round" stroke-linejoin="round"/>
</svg>
